<svg width="16" height="16" viewBox="0 0 16 16" fill="none" xmlns="http://www.w3.org/2000/svg">
<path d="M12.9236 12.3304C13.0631 12.4699 13.1414 12.6591 13.1414 12.8564C13.1414 13.0536 13.0631 13.2428 12.9236 13.3823C12.7841 13.5218 12.5949 13.6002 12.3976 13.6002C12.2003 13.6002 12.0111 13.5218 11.8716 13.3823L7.94268 9.45244L4.01255 13.3811C3.87304 13.5206 3.68384 13.599 3.48655 13.599C3.28926 13.599 3.10005 13.5206 2.96055 13.3811C2.82105 13.2416 2.74268 13.0524 2.74268 12.8551C2.74268 12.6579 2.82105 12.4687 2.96055 12.3292L6.89068 8.4005L2.96179 4.47061C2.82229 4.33111 2.74391 4.14192 2.74391 3.94464C2.74391 3.74737 2.82229 3.55817 2.96179 3.41868C3.10129 3.27918 3.2905 3.20081 3.48779 3.20081C3.68507 3.20081 3.87428 3.27918 4.01378 3.41868L7.94268 7.34857L11.8728 3.41806C12.0123 3.27856 12.2015 3.2002 12.3988 3.2002C12.5961 3.2002 12.7853 3.27856 12.9248 3.41806C13.0643 3.55755 13.1427 3.74675 13.1427 3.94402C13.1427 4.1413 13.0643 4.3305 12.9248 4.46999L8.99467 8.4005L12.9236 12.3304Z" fill="#F24822"/>
</svg>
