<svg width="40" height="40" viewBox="0 0 40 40" fill="none" xmlns="http://www.w3.org/2000/svg">
<rect width="40" height="40" rx="10" fill="white"/>
<g clip-path="url(#clip0_597_959)">
<path d="M4.71301 26.258L15.005 8.54434C16.3123 9.31812 22.9047 12.9859 23.9693 13.6834L13.6773 31.3981C12.5518 32.893 3.28701 28.5266 4.71301 26.257V26.258Z" fill="#FBBC04"/>
<path d="M34.2836 26.2576L23.9916 8.54507C22.5528 6.1378 19.454 5.26298 16.9087 6.68478C14.3635 8.10657 13.5885 11.1693 15.0273 13.684L25.3193 31.3988C26.7581 33.805 29.8571 34.6797 32.4023 33.258C34.8363 31.8361 35.7225 28.6648 34.2836 26.2597V26.2576Z" fill="#4285F4"/>
<path d="M9.16634 33.9425C12.0196 33.9425 14.3327 31.6749 14.3327 28.8777C14.3327 26.0805 12.0196 23.8129 9.16634 23.8129C6.31305 23.8129 4 26.0805 4 28.8777C4 31.6749 6.31305 33.9425 9.16634 33.9425Z" fill="#34A853"/>
</g>
<defs>
<clipPath id="clip0_597_959">
<rect width="31" height="28" fill="white" transform="translate(4 6)"/>
</clipPath>
</defs>
</svg>
